<svg width="21" height="21" viewBox="0 0 21 21" fill="none" xmlns="http://www.w3.org/2000/svg">
<path d="M20.6924 19.1961C20.8895 19.3957 21 19.6653 21 19.9463C21 20.2273 20.8895 20.497 20.6924 20.6966C20.4918 20.8912 20.2237 21 19.9447 21C19.6657 21 19.3976 20.8912 19.197 20.6966L10.5 11.9567L1.80302 20.6966C1.60243 20.8912 1.33433 21 1.05531 21C0.776294 21 0.508193 20.8912 0.307608 20.6966C0.110549 20.497 0 20.2273 0 19.9463C0 19.6653 0.110549 19.3957 0.307608 19.1961L9.01771 10.4693L0.307608 1.74256C0.140266 1.53796 0.054748 1.27822 0.0676873 1.01387C0.0806266 0.749507 0.191098 0.499428 0.377615 0.312273C0.564132 0.125118 0.813357 0.0142681 1.07681 0.0012845C1.34027 -0.0116991 1.59912 0.074112 1.80302 0.242027L10.5 8.98194L19.197 0.242027C19.4009 0.074112 19.6597 -0.0116991 19.9232 0.0012845C20.1866 0.0142681 20.4359 0.125118 20.6224 0.312273C20.8089 0.499428 20.9194 0.749507 20.9323 1.01387C20.9453 1.27822 20.8597 1.53796 20.6924 1.74256L11.9823 10.4693L20.6924 19.1961Z" fill="black"/>
</svg>
